<?xml version="1.0" standalone="no"?>
<!DOCTYPE svg PUBLIC "-//W3C//DTD SVG 20010904//EN"
 "http://www.w3.org/TR/2001/REC-SVG-20010904/DTD/svg10.dtd">
<svg version="1.0" xmlns="http://www.w3.org/2000/svg"
 width="512.000000pt" height="512.000000pt" viewBox="0 0 512.000000 512.000000"
 preserveAspectRatio="xMidYMid meet">

<g transform="translate(0.000000,512.000000) scale(0.100000,-0.100000)"
fill="#000000" stroke="none">
<path d="M3435 5011 c-46 -22 -102 -74 -156 -148 -45 -60 -121 -208 -140 -270
-6 -24 -14 -43 -17 -43 -3 0 -35 24 -71 53 -245 197 -525 324 -846 383 -154
29 -492 26 -635 -5 -546 -117 -992 -454 -1284 -969 -126 -223 -220 -501 -262
-782 -22 -145 -25 -483 -6 -620 75 -529 292 -979 641 -1327 356 -355 786 -548
1264 -567 l109 -4 61 -59 c242 -230 590 -421 922 -507 374 -95 685 -94 990 6
675 220 1142 898 1111 1614 -12 274 -80 561 -201 845 -56 130 -212 426 -267
506 -28 40 -86 106 -129 148 -43 41 -79 77 -79 80 0 3 24 17 53 31 83 42 158
97 214 156 92 99 91 169 -5 270 -64 67 -144 123 -249 174 l-73 35 19 37 c102
200 142 441 91 547 -32 66 -70 80 -205 79 -117 -1 -228 -27 -344 -80 -29 -13
-58 -24 -65 -24 -6 0 -26 38 -45 83 -70 168 -176 311 -263 355 -55 27 -81 27
-133 3z m103 -202 c80 -88 147 -215 183 -347 45 -165 35 -435 -23 -622 l-20
-65 -52 105 c-85 173 -182 318 -302 457 l-62 71 18 64 c23 85 56 161 98 228
33 53 110 150 118 150 2 0 21 -18 42 -41z m-1348 8 c461 -87 872 -367 1154
-787 60 -90 157 -273 199 -377 l26 -63 -22 -4 c-12 -3 -47 -7 -77 -11 -283
-30 -616 -153 -875 -322 -359 -235 -619 -526 -795 -888 -192 -394 -228 -734
-114 -1078 28 -85 109 -249 169 -342 l36 -57 -78 7 c-96 8 -231 37 -338 71
-117 38 -346 154 -450 229 -177 126 -367 322 -488 502 -493 734 -485 1714 20
2427 88 124 317 348 443 433 211 142 429 229 669 268 112 18 404 14 521 -8z
m2150 -352 c0 -192 -114 -432 -285 -599 -74 -72 -214 -180 -223 -171 -2 2 6
30 18 62 49 131 62 217 65 432 4 234 -10 205 122 261 71 30 194 57 266 59 l37
1 0 -45z m24 -634 c75 -34 169 -96 209 -138 l28 -30 -38 -35 c-22 -19 -61 -49
-88 -68 -53 -37 -190 -100 -216 -100 -9 0 -45 13 -80 29 -35 16 -97 38 -138
49 -40 12 -75 23 -78 25 -2 2 29 28 68 57 40 28 113 94 163 145 50 52 94 94
99 94 4 1 36 -12 71 -28z m-490 -426 c103 -18 186 -45 281 -93 304 -151 480
-404 525 -752 33 -258 -53 -594 -227 -883 -143 -239 -402 -506 -656 -676 -159
-106 -395 -210 -596 -261 -232 -59 -526 -65 -695 -15 -315 92 -553 305 -649
580 -110 310 -78 627 98 990 135 277 306 486 575 701 246 198 522 327 829 389
178 37 377 44 515 20z m1004 -1207 c92 -337 91 -665 -3 -946 -126 -376 -397
-694 -729 -856 -402 -196 -894 -191 -1369 15 -91 39 -261 129 -255 134 2 2 37
-3 78 -10 291 -53 734 30 1070 199 591 297 1062 885 1158 1448 9 54 19 98 22
98 3 0 16 -37 28 -82z"/>
<path d="M1690 4485 c-138 -39 -230 -139 -230 -249 0 -43 44 -129 83 -162 107
-91 306 -113 440 -49 224 105 211 358 -22 446 -74 28 -198 34 -271 14z m230
-185 c55 -28 65 -51 39 -84 -30 -38 -81 -56 -157 -56 -77 0 -147 29 -165 67
-9 20 -7 28 15 50 54 53 186 65 268 23z"/>
<path d="M815 4052 c-45 -28 -138 -132 -174 -196 -75 -134 -121 -301 -121
-443 0 -55 4 -67 25 -88 15 -16 36 -25 55 -25 66 0 85 29 94 150 15 182 69
311 179 427 61 64 71 80 71 110 0 26 -7 42 -28 59 -33 29 -61 30 -101 6z"/>
<path d="M2179 3967 c-202 -57 -282 -245 -164 -385 82 -97 268 -138 417 -92
126 39 199 117 206 220 8 103 -50 184 -167 238 -66 30 -217 40 -292 19z m214
-171 c117 -42 97 -120 -38 -149 -99 -20 -225 23 -225 78 0 64 160 107 263 71z"/>
<path d="M1355 3914 c-108 -26 -194 -85 -230 -158 -32 -65 -32 -118 1 -184 30
-61 69 -96 144 -131 49 -22 68 -25 170 -26 106 0 120 2 175 28 230 107 222
357 -14 448 -55 21 -198 35 -246 23z m173 -179 c65 -20 99 -58 79 -89 -7 -12
-33 -31 -58 -44 -113 -59 -330 15 -263 89 50 55 145 72 242 44z"/>
<path d="M483 2770 c-41 -17 -55 -61 -43 -142 50 -338 184 -647 385 -888 121
-143 246 -250 294 -250 45 0 81 35 81 79 0 45 -5 52 -96 129 -177 150 -339
399 -423 650 -29 87 -61 229 -76 334 -5 36 -14 53 -36 73 -32 26 -50 29 -86
15z"/>
<path d="M3549 3240 c-241 -22 -487 -107 -722 -249 -489 -296 -830 -804 -854
-1273 -13 -255 56 -456 213 -614 157 -159 368 -238 629 -237 509 3 1040 289
1382 747 140 188 225 362 279 572 25 96 28 127 28 259 0 126 -3 163 -22 230
-94 329 -348 528 -722 565 -52 5 -102 9 -110 8 -8 0 -54 -4 -101 -8z m326
-186 c105 -28 212 -91 295 -174 86 -85 120 -147 152 -273 52 -208 -13 -505
-166 -752 -48 -78 -46 -78 -146 -49 -99 29 -405 26 -550 -5 -329 -69 -662
-232 -861 -419 -67 -63 -167 -192 -181 -233 -6 -18 -87 40 -137 98 -103 119
-146 264 -138 462 5 136 30 241 87 372 151 343 480 679 825 844 280 133 610
185 820 129z m52 -1405 c35 -6 63 -14 63 -18 0 -15 -198 -203 -274 -261 -332
-254 -737 -380 -1046 -326 -51 9 -96 19 -98 21 -11 11 59 108 127 175 159 158
403 288 693 369 165 47 398 64 535 40z"/>
</g>
</svg>
